<svg viewBox="0 0 168 40" fill="none" xmlns="http://www.w3.org/2000/svg">
<path d="M53.2624 34.5446C50.645 37.1269 47.4496 38.418 43.6764 38.418C39.9031 38.418 36.7078 37.1269 34.0903 34.5446C31.4728 31.9284 30.1641 28.7346 30.1641 24.9631C30.1641 21.1917 31.4728 18.0149 34.0903 15.4326C36.7078 12.8164 39.9031 11.5083 43.6764 11.5083C47.4496 11.5083 50.645 12.8164 53.2624 15.4326C55.8799 18.0149 57.1886 21.1917 57.1886 24.9631C57.1886 28.7346 55.8799 31.9284 53.2624 34.5446ZM39.4952 29.2952C40.617 30.4164 42.0107 30.9771 43.6764 30.9771C45.342 30.9771 46.7357 30.4164 47.8575 29.2952C48.9793 28.174 49.5402 26.7299 49.5402 24.9631C49.5402 23.1963 48.9793 21.7523 47.8575 20.6311C46.7357 19.5099 45.342 18.9492 43.6764 18.9492C42.0107 18.9492 40.617 19.5099 39.4952 20.6311C38.3734 21.7523 37.8125 23.1963 37.8125 24.9631C37.8125 26.7299 38.3734 28.174 39.4952 29.2952Z" fill="#BC002D"/>
<path d="M33.7212 2.02881L21.7386 23.9949V37.7046H13.5803V23.9949L1.59766 2.02881H10.8778L17.6594 15.7895L24.4411 2.02881H33.7212Z" fill="white"/>
<path d="M36.0297 8.70527V2.58943H51.3266V8.70527H36.0297Z" fill="white"/>
<path d="M85.9917 37.7046H77.3234L69.1651 26.4412V37.7046H61.5166V2.02881H69.1651V23.3833L76.8136 12.2219H85.7368L76.4566 24.9632L85.9917 37.7046Z" fill="white"/>
<path d="M109.084 34.5447C106.467 37.1269 103.271 38.4181 99.498 38.4181C95.7248 38.4181 92.5294 37.1269 89.9119 34.5447C87.2945 31.9285 85.9857 28.7347 85.9857 24.9632C85.9857 21.1918 87.2945 18.0149 89.9119 15.4327C92.5294 12.8165 95.7248 11.5084 99.498 11.5084C103.271 11.5084 106.467 12.8165 109.084 15.4327C111.702 18.0149 113.01 21.1918 113.01 24.9632C113.01 28.7347 111.702 31.9285 109.084 34.5447ZM95.3169 29.2953C96.4386 30.4165 97.8324 30.9771 99.498 30.9771C101.164 30.9771 102.557 30.4165 103.679 29.2953C104.801 28.174 105.362 26.73 105.362 24.9632C105.362 23.1964 104.801 21.7524 103.679 20.6312C102.557 19.5099 101.164 18.9493 99.498 18.9493C97.8324 18.9493 96.4386 19.5099 95.3169 20.6312C94.1951 21.7524 93.6342 23.1964 93.6342 24.9632C93.6342 26.73 94.1951 28.174 95.3169 29.2953Z" fill="white"/>
<path d="M124.079 19.6628C124.079 20.1725 124.504 20.5972 125.354 20.937C126.238 21.2427 127.291 21.5655 128.515 21.9053C129.739 22.2111 130.963 22.6188 132.186 23.1285C133.41 23.6381 134.447 24.4875 135.297 25.6767C136.181 26.8319 136.623 28.293 136.623 30.0598C136.623 32.8119 135.603 34.9015 133.563 36.3285C131.524 37.7215 129.008 38.4181 126.017 38.4181C120.646 38.4181 116.992 36.3964 115.054 32.3532L121.683 28.5818C122.362 30.5864 123.807 31.5887 126.017 31.5887C127.852 31.5887 128.77 31.0621 128.77 30.0088C128.77 29.4991 128.328 29.0744 127.444 28.7347C126.595 28.3949 125.558 28.0721 124.334 27.7663C123.11 27.4265 121.887 27.0018 120.663 26.4922C119.439 25.9485 118.385 25.1161 117.501 23.9949C116.652 22.8736 116.227 21.4976 116.227 19.8667C116.227 17.2165 117.178 15.1609 119.082 13.6999C121.02 12.2389 123.399 11.5084 126.221 11.5084C128.328 11.5084 130.249 11.984 131.982 12.9354C133.716 13.8528 135.11 15.1949 136.164 16.9617L129.637 20.4783C128.821 18.9833 127.682 18.2358 126.221 18.2358C124.793 18.2358 124.079 18.7115 124.079 19.6628Z" fill="white"/>
<path d="M162.016 34.5447C159.398 37.1269 156.203 38.4181 152.43 38.4181C148.657 38.4181 145.461 37.1269 142.844 34.5447C140.226 31.9285 138.918 28.7347 138.918 24.9632C138.918 21.1918 140.226 18.0149 142.844 15.4327C145.461 12.8165 148.657 11.5084 152.43 11.5084C156.203 11.5084 159.398 12.8165 162.016 15.4327C164.633 18.0149 165.942 21.1918 165.942 24.9632C165.942 28.7347 164.633 31.9285 162.016 34.5447ZM148.249 29.2953C149.37 30.4165 150.764 30.9771 152.43 30.9771C154.095 30.9771 155.489 30.4165 156.611 29.2953C157.733 28.174 158.294 26.73 158.294 24.9632C158.294 23.1964 157.733 21.7524 156.611 20.6312C155.489 19.5099 154.095 18.9493 152.43 18.9493C150.764 18.9493 149.37 19.5099 148.249 20.6312C147.127 21.7524 146.566 23.1964 146.566 24.9632C146.566 26.73 147.127 28.174 148.249 29.2953Z" fill="white"/>
</svg>
