<svg viewBox="0 0 27 32" fill="none" xmlns="http://www.w3.org/2000/svg">
<path d="M26.1616 22.5507C24.1205 20.8467 22.95 18.356 22.95 15.7174V12C22.95 7.30802 19.4211 3.42401 14.85 2.77334V1.33334C14.85 0.596001 14.2452 0 13.5 0C12.7548 0 12.15 0.596001 12.15 1.33334V2.77334C7.57755 3.42401 4.05 7.30802 4.05 12V15.7174C4.05 18.356 2.87955 20.8467 0.8262 22.5614C0.30105 23.0054 0 23.6507 0 24.3334C0 25.6201 1.05975 26.6667 2.3625 26.6667H24.6375C25.9403 26.6667 27 25.6201 27 24.3334C27 23.6507 26.6989 23.0054 26.1616 22.5507Z" fill="#CDCED5"/>
<path d="M13.499 32C15.9438 32 17.9891 30.2787 18.4589 28H8.53906C9.00886 30.2787 11.0541 32 13.499 32Z" fill="#CDCED5"/>
</svg>
